<svg width="22" height="22" viewBox="0 0 22 22" fill="none" xmlns="http://www.w3.org/2000/svg">
<path fill-rule="evenodd" clip-rule="evenodd" d="M11 22C4.92484 22 -3.05176e-05 17.0751 -3.05176e-05 11C-3.05176e-05 4.92487 4.92484 0 11 0C17.0751 0 22 4.92487 22 11C22 17.0751 17.0751 22 11 22ZM11 20C15.9705 20 20 15.9706 20 11C20 6.02943 15.9705 1.99999 11 1.99999C6.02942 1.99999 1.99999 6.02943 1.99999 11C1.99999 15.9706 6.02942 20 11 20ZM7.70709 15.7071L11 12.4142L14.2929 15.7071L15.7071 14.2929L12.4142 11L15.7071 7.70708L14.2929 6.29287L11 9.58576L7.70709 6.29287L6.29288 7.70708L9.58577 11L6.29288 14.2929L7.70709 15.7071Z" fill="#800080"/>
</svg>
